<?xml version="1.0" ?><svg version="1.1" viewBox="1.78814005380445E-07 0.468001991510391 84.8653028607368 84.8652957379818" xmlns="http://www.w3.org/2000/svg" xmlns:xlink="http://www.w3.org/1999/xlink"><defs><radialGradient cx="0.499992" cy="0.5" id="def0" r="0.499996"><stop offset="0" stop-color="#FFFFFF"/><stop offset="0.49195" stop-color="#B8947F"/><stop offset="0.842422" stop-color="#722900"/><stop offset="0.941826" stop-color="#953500"/><stop offset="1" stop-color="#B94200"/></radialGradient><linearGradient id="def1" x1="0.500008" x2="0.500008" y1="1.06747" y2="0.0674628"><stop offset="0" stop-color="#FFFFFF" style="stop-opacity:0.152941176470588"/><stop offset="0.13" stop-color="#FFFFFF" style="stop-opacity:0.0941176470588235"/><stop offset="1" stop-color="#FFFFFF" style="stop-opacity:0.0313725490196078"/></linearGradient><linearGradient gradientTransform="rotate(-87.7832 0.507971 -0.170371)" id="def2" x1="0.507971" x2="0.733863" y1="-0.170371" y2="-0.170371"><stop offset="0" stop-color="#FFFFFF" style="stop-opacity:0.152941176470588"/><stop offset="0.13" stop-color="#FFFFFF" style="stop-opacity:0.0941176470588235"/><stop offset="1" stop-color="#FFFFFF" style="stop-opacity:0.0313725490196078"/></linearGradient><linearGradient id="def3" x1="0.499999" x2="0.499999" y1="-0.103176" y2="1.33341"><stop offset="0" stop-color="#FFFFFF" style="stop-opacity:0.803921568627451"/><stop offset="0.13" stop-color="#FFFFFF" style="stop-opacity:0.443137254901961"/><stop offset="1" stop-color="#FFFFFF" style="stop-opacity:0.0823529411764706"/></linearGradient></defs><g><path d="M1.78814E-07,42.9013C1.78814E-07,66.3347,18.9973,85.3333,42.432,85.3333L42.432,85.3333C65.8707,85.3333,84.8653,66.3347,84.8653,42.9013L84.8653,42.9013C84.8653,19.4667,65.8707,0.468002,42.432,0.468002L42.432,0.468002C18.9973,0.468002,1.78814E-07,19.4667,1.78814E-07,42.9013z" fill="url(#def0)"/><path d="M83.7705,42.7927C83.7705,65.594 65.2892,84.078 42.4865,84.078 19.6852,84.078 1.2012,65.594 1.2012,42.7927 1.2012,19.99 19.6852,1.50733 42.4865,1.50733 65.2892,1.50733 83.7705,19.99 83.7705,42.7927z" fill="#FF692E"/><path d="M77.0569,42.7927C77.0569,61.8833 61.5809,77.3607 42.4863,77.3607 23.3943,77.3607 7.91827,61.8833 7.91827,42.7927 7.91827,23.7007 23.3943,8.22334 42.4863,8.22334 61.5809,8.22334 77.0569,23.7007 77.0569,42.7927z" fill="#FFFFFF"/><path d="M69.5205,42.7927C69.5205,57.722 57.4165,69.8233 42.4872,69.8233 27.5565,69.8233 15.4539,57.722 15.4539,42.7927 15.4539,27.862 27.5565,15.7607 42.4872,15.7607 57.4165,15.7607 69.5205,27.862 69.5205,42.7927z" fill="#FF692E"/><path d="M60.7783,42.7927C60.7783,52.894 52.5876,61.0833 42.4863,61.0833 32.3836,61.0833 24.1956,52.894 24.1956,42.7927 24.1956,32.69 32.3836,24.5007 42.4863,24.5007 52.5876,24.5007 60.7783,32.69 60.7783,42.7927z" fill="#FFFFFF"/><path d="M50.6872,42.7927C50.6872,47.3193 47.0152,50.9873 42.4872,50.9873 37.9592,50.9873 34.2899,47.3193 34.2899,42.7927 34.2899,38.266 37.9592,34.5953 42.4872,34.5953 47.0152,34.5953 50.6872,38.266 50.6872,42.7927z" fill="#FF692E"/><path d="M42.4867,1.50667C65.2893,1.50667 83.7707,19.9907 83.7707,42.792 83.7707,65.5933 65.2893,84.0773 42.4867,84.0773 19.684,84.0773 1.20133,65.5933 1.20133,42.792 1.20133,19.9907 19.684,1.50667 42.4867,1.50667z" fill="url(#def1)"/><path d="M42.4867,81.948C20.0413,81.948 1.79467,64.0333 1.228,41.7267 1.21867,42.0827 1.20133,42.4347 1.20133,42.792 1.20133,65.5933 19.684,84.0773 42.4867,84.0773 65.2893,84.0773 83.7707,65.5933 83.7707,42.792 83.7707,42.4347 83.752,42.0827 83.7427,41.7267 83.1773,64.0333 64.932,81.948 42.4867,81.948z" fill="url(#def2)"/><path d="M80.8227,35.6653C80.8227,54.5307 63.588,69.824 42.3227,69.824 21.0587,69.824 3.82133,54.5307 3.82133,35.6653 3.82133,16.8 21.0587,1.50667 42.3227,1.50667 63.588,1.50667 80.8227,16.8 80.8227,35.6653z" fill="url(#def3)"/><path d="M45.0375,42.7927C45.0375,44.2007 43.8975,45.3407 42.4868,45.3407 41.0815,45.3407 39.9401,44.2007 39.9401,42.7927 39.9401,41.3847 41.0815,40.2433 42.4868,40.2433 43.8975,40.2433 45.0375,41.3847 45.0375,42.7927z" fill="#6D2F21"/><path d="M70.8747,74.3941L40.84,44.3595 43.4427,41.7555 73.5,71.8128 70.8747,74.3941z" fill="#6D2F21" style="fill-opacity:0.603921568627451"/><path d="M43.7001,44.2561C43.2268,44.7281 42.2588,44.5281 41.5415,43.8108 40.8201,43.0921 40.6241,42.1241 41.0975,41.6508L77.5268,5.2228C77.9988,4.74814 78.9655,4.9468 79.6855,5.66814 80.4041,6.3868 80.6028,7.35347 80.1268,7.8268L43.7001,44.2561z" fill="#9B7853"/><path d="M79.6859,5.6676C79.5779,5.55827 79.4565,5.48627 79.3392,5.40227 79.8125,6.06227 79.9205,6.81293 79.5165,7.21426L43.0912,43.6423C42.6859,44.0436 41.9339,43.9369 41.2739,43.4636 41.3592,43.5809 41.4325,43.7009 41.5419,43.8103 42.2592,44.5289 43.2259,44.7289 43.7005,44.2556L80.1272,7.82626C80.6032,7.35426,80.4045,6.38627,79.6859,5.6676z" fill="#8E6B4C"/><path d="M83.2719,7.5472C81.7625,9.0552 79.3159,9.0552 77.8039,7.5472 76.2985,6.03653 76.2985,3.5912 77.8039,2.08054 79.3159,0.571198 81.7625,0.56987 83.2732,2.0792 84.7812,3.58853 84.7825,6.03653 83.2719,7.5472z" fill="#9B7853"/><path d="M78.9501,6.402C77.6381,5.09 77.4688,3.06866 78.4395,1.57 78.2155,1.71533 78.0008,1.88333 77.8048,2.08067 76.2981,3.59134 76.2981,6.03667 77.8048,7.54601 79.3155,9.05534 81.7621,9.05534 83.2715,7.54733 83.4688,7.35 83.6368,7.13667 83.7821,6.91267 82.2848,7.88333 80.2608,7.714 78.9501,6.402z" fill="#8E6B4C"/><path d="M82.1468,4.1312C81.5641,4.71253 80.6241,4.71387 80.0441,4.13254 79.4628,3.5512 79.4628,2.60986 80.0441,2.0272 80.6241,1.4472 81.5641,1.4472 82.1455,2.02853 82.7295,2.60986 82.7295,3.5512 82.1468,4.1312z" fill="#AD8868"/><path d="M78.1845,7.3004C76.6752,5.79107 76.6739,3.3444 78.1845,1.83373 78.3325,1.68707 78.4952,1.5644 78.6592,1.44573 78.3499,1.61774 78.0512,1.81773 77.7885,2.0804 76.2819,3.59106 76.2819,6.0364 77.7885,7.54707 79.1539,8.9084 81.2712,9.0284 82.7832,7.93373 81.3139,8.7484 79.4312,8.5484 78.1845,7.3004z" fill="#80DEFF" style="fill-opacity:0.301960784313725"/><path d="M60.6168,22.1305L73.1101,9.63987 72.8501,0.790535 60.3581,13.2799 60.6168,22.1305z" fill="#AEEEFF"/><path d="M60.6168,22.1305L72.1955,10.5532 71.9528,2.35053 60.3768,13.9292 60.6168,22.1305z" fill="#80DEFF"/><path d="M69.9489,12.7984L69.8436,9.66373 69.6729,4.6304 68.6649,5.64107 68.8343,10.6757 68.9396,13.8077 69.9489,12.7984z" fill="#58C0DB" style="fill-opacity:0.403921568627451"/><path d="M66.9255,15.8193L66.8215,12.686 66.6521,7.65266 65.6428,8.66067 65.8135,13.702 65.9201,16.8287 66.9255,15.8193z" fill="#58C0DB" style="fill-opacity:0.403921568627451"/><path d="M64.0387,18.7087L63.932,15.5767 63.7627,10.542 62.7533,11.5513 62.9227,16.5873 63.0293,19.718 64.0387,18.7087z" fill="#58C0DB" style="fill-opacity:0.403921568627451"/><path d="M73.0947,9.6416L72.8693,0.784271 71.88,2.4256 72.088,10.6603 73.0947,9.6416z" fill="#C7F4FF"/><path d="M60.5257,19.0081L72.0084,7.52547 72.0764,10.6481 60.6071,22.1215 60.5257,19.0081z" fill="#45ACC4" style="fill-opacity:0.501960784313725"/><path d="M63.2223,24.736L75.7129,12.2427 84.5623,12.504 72.0729,24.9947 63.2223,24.736z" fill="#AEEEFF"/><path d="M63.2223,24.736L74.7996,13.1573 83.0009,13.4 71.4236,24.976 63.2223,24.736z" fill="#80DEFF"/><path d="M72.5556,15.4033L75.6876,15.5073 80.7209,15.6807 79.7103,16.6873 74.6783,16.5167 71.5449,16.4127 72.5556,15.4033z" fill="#58C0DB" style="fill-opacity:0.403921568627451"/><path d="M69.5323,18.4255L72.6656,18.5308 77.7016,18.7001 76.6909,19.7095 71.6509,19.5388 68.5256,19.4335 69.5323,18.4255z" fill="#58C0DB" style="fill-opacity:0.403921568627451"/><path d="M66.6441,21.3148L69.7761,21.4201 74.8108,21.5881 73.8015,22.5975 68.7668,22.4281 65.6348,22.3215 66.6441,21.3148z" fill="#58C0DB" style="fill-opacity:0.403921568627451"/><path d="M75.7107,12.2588L84.568,12.4841 82.9267,13.4721 74.692,13.2655 75.7107,12.2588z" fill="#C7F4FF"/><path d="M66.3447,24.8277L77.8273,13.3424 74.7047,13.2744 63.23,24.7451 66.3447,24.8277z" fill="#45ACC4" style="fill-opacity:0.501960784313725"/></g></svg>